<svg id="Rigth_side_arrow" data-name="Rigth side arrow" xmlns="http://www.w3.org/2000/svg" width="14.412" height="12.353" viewBox="0 0 14.412 12.353">
  <path id="Shape_1" data-name="Shape 1" d="M1256.182,365.6l-5.2-5.363a.775.775,0,0,0-1.115,0l-.472.487a.819.819,0,0,0-.23.575.836.836,0,0,0,.23.582l3.036,3.135h-9.647a.782.782,0,0,0-.779.8v.688a.813.813,0,0,0,.779.834h9.681l-3.071,3.153a.822.822,0,0,0,0,1.141l.472.485a.775.775,0,0,0,1.116,0l5.2-5.362a.838.838,0,0,0,0-1.154Z" transform="translate(-1242 -360)" fill="#fff"/>
</svg>
